<svg width="26" height="26" viewBox="0 0 26 26" fill="none" xmlns="http://www.w3.org/2000/svg">
<path d="M10.3695 0C4.63673 0 0 4.53044 0 10.1318C0 15.7332 4.63673 20.2636 10.3695 20.2636C12.4162 20.2636 14.3105 19.6769 15.9164 18.6805L23.4076 26L26 23.467L18.6041 16.2593C19.9337 14.5552 20.739 12.4436 20.739 10.1318C20.739 4.53044 16.1023 0 10.3695 0ZM10.3695 2.38395C14.7608 2.38395 18.2991 5.84115 18.2991 10.1318C18.2991 14.4225 14.7608 17.8797 10.3695 17.8797C5.97819 17.8797 2.43988 14.4225 2.43988 10.1318C2.43988 5.84115 5.97819 2.38395 10.3695 2.38395Z" fill="#34AC40"/>
</svg>
